<svg width="29" height="30" viewBox="0 0 29 30" fill="none" xmlns="http://www.w3.org/2000/svg">
<path d="M22.39 0.564941H6.48C2.90119 0.564941 0 3.46614 0 7.04494V22.9549C0 26.5337 2.90119 29.4349 6.48 29.4349H22.39C25.9688 29.4349 28.87 26.5337 28.87 22.9549V7.04494C28.87 3.46614 25.9688 0.564941 22.39 0.564941Z" fill="#333333"/>
<path d="M9.99998 5.56494H19C19.2 5.66494 19.5 5.66494 19.7 5.76494C20.5776 5.90717 21.3982 6.29136 22.0695 6.87432C22.7408 7.45728 23.2362 8.21591 23.5 9.06494C23.6477 9.55421 23.7481 10.0565 23.8 10.5649V19.3649C23.657 20.4802 23.2452 21.5441 22.6 22.4649C22.0464 23.1063 21.3525 23.6113 20.572 23.9408C19.7916 24.2704 18.9456 24.4155 18.1 24.3649H10.6C9.26153 24.4299 7.94553 24.0031 6.89998 23.1649C6.26419 22.6156 5.76244 21.9281 5.43313 21.1551C5.10382 20.3821 4.95566 19.544 4.99998 18.7049V11.7049C4.98346 11.2029 5.01696 10.7004 5.09998 10.2049C5.20096 9.17973 5.62249 8.21242 6.30467 7.44048C6.98685 6.66854 7.89497 6.13124 8.89998 5.90494L9.99998 5.56494ZM6.89998 15.0649V18.9649C6.85735 19.4616 6.92379 19.9615 7.09465 20.4298C7.26552 20.8981 7.53668 21.3233 7.88914 21.6758C8.24161 22.0282 8.66686 22.2994 9.13513 22.4703C9.60339 22.6411 10.1033 22.7076 10.6 22.6649C13.2 22.7649 15.8 22.7649 18.4 22.6649C20.7 22.6649 22 21.2649 22.1 18.9649C22.2 16.3649 22.2 13.7649 22.1 11.1649C22.1259 10.6722 22.0479 10.1796 21.8712 9.71893C21.6944 9.25828 21.4227 8.83995 21.0739 8.49107C20.725 8.14218 20.3066 7.87054 19.846 7.69377C19.3854 7.51699 18.8927 7.43903 18.4 7.46494C15.8 7.36494 13.2 7.36494 10.6 7.46494C10.1033 7.4223 9.60339 7.48875 9.13513 7.65961C8.66686 7.83048 8.24161 8.10164 7.88914 8.4541C7.53668 8.80657 7.26552 9.23182 7.09465 9.70009C6.92379 10.1684 6.85735 10.6683 6.89998 11.1649V15.0649Z" fill="white"/>
<path d="M9.64001 15.105C9.64266 13.8062 10.1598 12.5614 11.0781 11.6431C11.9965 10.7247 13.2413 10.2076 14.54 10.205C15.8316 10.2305 17.0631 10.755 17.9765 11.6684C18.89 12.5819 19.4144 13.8134 19.44 15.105C19.4374 16.4037 18.9203 17.6485 18.0019 18.5669C17.0836 19.4852 15.8388 20.0023 14.54 20.005C13.2485 19.9794 12.0169 19.4549 11.1035 18.5415C10.1901 17.628 9.6656 16.3965 9.64001 15.105ZM14.54 12.005C13.9326 11.9951 13.3361 12.1668 12.827 12.4981C12.3178 12.8294 11.9192 13.3052 11.6822 13.8645C11.4451 14.4238 11.3805 15.0411 11.4966 15.6374C11.6127 16.2337 11.9042 16.7817 12.3337 17.2112C12.7633 17.6408 13.3113 17.9323 13.9076 18.0483C14.5038 18.1644 15.1212 18.0998 15.6805 17.8628C16.2398 17.6258 16.7156 17.2271 17.0469 16.718C17.3782 16.2088 17.5499 15.6123 17.54 15.005C17.54 14.2093 17.2239 13.4462 16.6613 12.8836C16.0987 12.321 15.3357 12.005 14.54 12.005Z" fill="white"/>
<path d="M18.3399 10.0049C18.3344 9.84582 18.3616 9.68728 18.4199 9.53917C18.4782 9.39105 18.5664 9.25652 18.679 9.14396C18.7916 9.03139 18.9261 8.9432 19.0742 8.88487C19.2223 8.82654 19.3809 8.79933 19.5399 8.80491C19.8513 8.82597 20.1444 8.95916 20.3651 9.17981C20.5857 9.40045 20.7189 9.69359 20.7399 10.0049C20.7399 10.3232 20.6135 10.6284 20.3885 10.8534C20.1634 11.0785 19.8582 11.2049 19.5399 11.2049C19.2217 11.2049 18.9165 11.0785 18.6914 10.8534C18.4664 10.6284 18.3399 10.3232 18.3399 10.0049Z" fill="white"/>
</svg>
