<svg width="30" height="30" viewBox="0 0 30 30" fill="none" xmlns="http://www.w3.org/2000/svg">
<g clip-path="url(#clip0_249_2756)">
<path d="M24.9062 29.1766H5.51375C2.9532 29.1766 0.870117 27.098 0.870117 24.5426V5.19895C0.870117 2.64358 2.9532 0.564941 5.51375 0.564941H24.9062C27.4661 0.564941 29.5491 2.64358 29.5491 5.19895V24.5433C29.5491 27.0987 27.4661 29.1766 24.9062 29.1766ZM11.0338 20.9723L7.1238 21.985L8.58803 18.1579L8.44442 17.8447C7.74658 16.3185 7.56134 14.6075 7.91638 12.9673C8.27143 11.3271 9.1477 9.84577 10.4142 8.74477C13.6536 5.92884 18.5615 6.27232 21.3774 9.51094C24.1934 12.7503 23.8499 17.6582 20.6105 20.4741C19.3439 21.5752 17.7551 22.2367 16.0814 22.36C14.4077 22.4833 12.739 22.0617 11.3248 21.1581L11.0346 20.9723H11.0338ZM9.13952 7.27759C7.60157 8.61452 6.52285 10.4011 6.05591 12.3847C5.58897 14.3683 5.75745 16.4485 6.53752 18.3311L4.53587 24.2354L10.5786 22.9799C12.3342 24.014 14.3704 24.4702 16.3994 24.2838C18.4284 24.0974 20.3474 23.278 21.8853 21.9413C25.9345 18.4214 26.3638 12.2862 22.8439 8.23696C19.324 4.18702 13.188 3.75841 9.13878 7.27907L9.13952 7.27759ZM19.5571 16.7773L19.4091 16.6899C19.0168 16.4457 18.1359 15.9208 17.9612 15.8424C17.6029 15.6721 17.3342 15.6795 17.078 16.0015C16.9611 16.1496 16.6368 16.479 16.3481 16.7581C16.323 16.7825 16.3555 16.781 16.2741 16.7299C14.838 15.8483 14.2821 15.3094 13.6877 14.0517C13.7965 13.9577 14.1451 13.6194 14.3317 13.3403C14.3561 13.3033 14.3805 13.2663 14.4035 13.2285C14.5367 13.0064 14.5323 12.7888 14.4427 12.5608C14.2969 12.1921 13.0829 10.2682 12.7801 10.2416C12.6262 10.2308 12.4717 10.2519 12.3264 10.3036C12.1811 10.3554 12.048 10.4366 11.9355 10.5421C11.9518 10.5273 11.8133 10.6532 11.7637 10.6998C11.679 10.7803 11.5992 10.8659 11.5246 10.9559C11.1915 11.3601 10.9739 11.8576 10.9184 12.4883C10.8695 13.0471 11.0013 13.6364 11.253 14.2293C11.3847 14.5388 11.4884 14.729 11.6475 14.9918C11.5587 14.8526 11.8814 15.3945 12.0621 15.6684C12.3656 16.1288 12.7105 16.5841 13.1029 17.0179C13.7299 17.7115 14.419 18.2837 15.1711 18.6909C16.4362 19.3734 17.0492 19.5459 17.8864 19.4955C18.5126 19.4578 19.4528 18.964 19.7059 18.4073C19.9354 17.9025 20.0317 17.3495 19.9154 17.1141C19.8784 17.0238 19.8044 16.9439 19.6978 16.8676C19.6522 16.8355 19.6053 16.8054 19.5571 16.7773Z" fill="#333333"/>
</g>
<defs>
<clipPath id="clip0_249_2756">
<rect width="28.87" height="28.87" fill="white" transform="translate(0.870117 0.564941)"/>
</clipPath>
</defs>
</svg>
